<svg width="26" height="26" viewBox="0 0 26 26" fill="none" xmlns="http://www.w3.org/2000/svg">
<path fill-rule="evenodd" clip-rule="evenodd" d="M19.2336 0.74574C18.4975 0.0096308 17.3874 -0.204153 16.4305 0.205917L7.00714 4.24451C5.8941 4.72154 5.03594 5.65029 4.65549 6.80414C3.76246 9.51262 2.60708 13.0913 1.67428 16.1504C1.20815 17.6791 0.795621 19.0845 0.498919 20.1891C0.35075 20.7407 0.229365 21.2251 0.144391 21.616C0.0652554 21.9802 0 22.3388 0 22.5973V22.9488L2.19436 25.1432H2.54586C2.80447 25.1432 3.16311 25.078 3.52722 24.9989C3.91819 24.9139 4.40255 24.7925 4.95417 24.6444C6.05877 24.3477 7.46417 23.9351 8.99285 23.469C12.052 22.5362 15.6306 21.3807 18.3392 20.4878C19.493 20.1073 20.4217 19.2492 20.8988 18.1361L24.9374 8.7127C25.3474 7.75586 25.1336 6.64575 24.3975 5.90964L19.2336 0.74574ZM17.0992 1.76593C17.4181 1.62924 17.7881 1.70051 18.0335 1.94588L23.1973 7.10978C23.4428 7.35514 23.5141 7.72518 23.3773 8.04412L19.3387 17.4676C19.0518 18.1368 18.4955 18.649 17.8076 18.8758C15.1052 19.7668 11.5399 20.9179 8.49784 21.8454C6.97594 22.3096 5.59147 22.7158 4.51389 23.0052C3.97444 23.1501 3.51965 23.2637 3.16676 23.3404C3.09215 23.3565 3.02327 23.3709 2.9601 23.3833L11.6316 14.7118C12.5779 15.1639 13.7457 14.9979 14.5295 14.2141C15.5237 13.2199 15.5237 11.608 14.5295 10.6138C13.5353 9.61955 11.9233 9.61955 10.9291 10.6138C10.1453 11.3976 9.97941 12.5654 10.4315 13.5117L1.7599 22.1832C1.77238 22.1201 1.78668 22.0511 1.80291 21.9765C1.87961 21.6236 1.99315 21.1688 2.13806 20.6294C2.42749 19.5518 2.83366 18.1674 3.29772 16.6454C4.22533 13.6033 5.37634 10.0379 6.26738 7.33559C6.49416 6.64779 7.00635 6.0914 7.67571 5.80453L17.0992 1.76593Z" fill="#5221E6"/>
</svg>
